<svg xmlns="http://www.w3.org/2000/svg" xmlns:xlink="http://www.w3.org/1999/xlink" width="50" zoomAndPan="magnify" viewBox="0 0 37.5 37.499999" height="50" preserveAspectRatio="xMidYMid meet" version="1.0"><defs><clipPath id="81021ce235"><path d="M 0 0 L 37.007812 0 L 37.007812 37 L 0 37 Z M 0 0 " clip-rule="nonzero"/></clipPath><clipPath id="525b127870"><path d="M 8.019531 0 L 37.007812 0 L 37.007812 29 L 8.019531 29 Z M 8.019531 0 " clip-rule="nonzero"/></clipPath></defs><g clip-path="url(#81021ce235)"><path fill="#ffffff" d="M 4.402344 36.6875 L 33.34375 36.6875 C 35.625 36.6875 37.476562 34.902344 37.476562 32.703125 L 37.476562 15.433594 L 33.34375 19.417969 L 33.34375 32.703125 L 10.929688 32.703125 C 10.878906 32.703125 10.820312 32.722656 10.765625 32.722656 C 10.699219 32.722656 10.632812 32.703125 10.5625 32.703125 L 4.402344 32.703125 L 4.402344 4.8125 L 18.554688 4.8125 L 22.691406 0.828125 L 4.402344 0.828125 C 2.121094 0.828125 0.269531 2.613281 0.269531 4.8125 L 0.269531 32.703125 C 0.269531 34.902344 2.121094 36.6875 4.402344 36.6875 Z M 4.402344 36.6875 " fill-opacity="1" fill-rule="nonzero"/></g><g clip-path="url(#525b127870)"><path fill="#ffffff" d="M 8.175781 28.117188 L 16.996094 28.085938 L 36.25 9.734375 C 37.007812 9.007812 37.421875 8.042969 37.421875 7.015625 C 37.421875 5.988281 37.007812 5.019531 36.25 4.292969 L 33.082031 1.242188 C 31.570312 -0.210938 28.933594 -0.203125 27.433594 1.238281 L 8.175781 19.59375 Z M 30.253906 3.964844 L 33.429688 7.007812 L 30.238281 10.050781 L 27.070312 7.003906 Z M 12.175781 21.199219 L 24.226562 9.707031 L 27.398438 12.757812 L 15.347656 24.246094 L 12.175781 24.253906 Z M 12.175781 21.199219 " fill-opacity="1" fill-rule="nonzero"/></g></svg>